<svg width="28" height="33" viewBox="0 0 28 33" fill="none" xmlns="http://www.w3.org/2000/svg">
<path fill-rule="evenodd" clip-rule="evenodd" d="M10.3526 12.8261C10.2928 13.0568 10.1885 13.2734 10.0455 13.4637C9.7793 13.8107 9.427 14.0813 9.0239 14.2485C8.6614 14.4054 8.2774 14.5069 7.8849 14.5494C7.8042 14.5597 7.7206 14.566 7.6395 14.5722L7.6263 14.5732C7.3777 14.5827 7.1387 14.6719 6.9442 14.8277C6.7497 14.9836 6.61 15.1979 6.5455 15.4392C6.516 15.5593 6.494 15.6811 6.4798 15.804C6.4572 15.9893 6.4456 16.179 6.433 16.3842C6.424 16.5314 6.4144 16.6867 6.4 16.854C6.3156 17.5356 6.1193 18.1984 5.8192 18.8155C5.7579 18.9452 5.6954 19.071 5.6339 19.1945C5.3049 19.8565 5.0076 20.4545 5.0929 21.2554C5.1597 21.8725 5.4744 22.286 5.8925 22.7125C6.0911 22.9165 6.3544 23.0908 6.6277 23.2718C7.3927 23.7782 8.2361 24.3366 7.9582 25.7434C7.7308 26.8833 5.8494 28.0795 3.205 28.4973C3.4615 28.4582 2.8965 27.4898 2.8338 27.3823L2.83 27.3758C2.7571 27.2611 2.6824 27.1481 2.6079 27.0353C2.3927 26.7095 2.1783 26.3854 2.0111 26.026C1.5693 25.0875 1.3645 24.0017 1.5455 22.9733C1.7095 22.0426 2.3221 21.2991 2.9118 20.5832C3.008 20.4665 3.1035 20.3506 3.1964 20.2347C3.9852 19.2507 4.8128 17.9614 4.9959 16.6841C5.0114 16.5731 5.0252 16.4521 5.0397 16.3248C5.0657 16.0969 5.0939 15.8488 5.1382 15.6016C5.2039 15.1747 5.3371 14.761 5.5326 14.3762C5.666 14.1239 5.8417 13.8965 6.052 13.704C6.1616 13.6018 6.2339 13.4656 6.2574 13.3172C6.2808 13.1689 6.254 13.0169 6.1813 12.8856L1.9658 5.26916L8.0207 12.7752C8.0897 12.8622 8.1768 12.9329 8.276 12.9822C8.3752 13.0315 8.484 13.0583 8.5946 13.0607C8.7053 13.0631 8.8151 13.041 8.9163 12.9959C9.0175 12.9509 9.1076 12.884 9.1802 12.8001C9.2569 12.7103 9.3004 12.5966 9.3033 12.4782C9.3063 12.3599 9.2685 12.2442 9.1963 12.1506C8.9148 11.7892 8.6218 11.4229 8.3302 11.0582C8.2122 10.9107 8.0943 10.7632 7.9776 10.6167L6.4539 8.72236L3.3957 4.94006L0 0.901855L3.788 4.60126L7.0433 8.21676L8.6673 10.0289C8.8165 10.1977 8.9657 10.365 9.1148 10.5322C9.5044 10.969 9.894 11.4058 10.2836 11.8692L10.372 11.9774L10.3914 12.1452C10.4176 12.3727 10.4045 12.6031 10.3526 12.8261ZM25.9247 15.3716L25.9311 15.3814C25.93 14.5738 25.4322 13.2413 24.4247 11.9596L24.401 11.9282C24.0906 11.5429 23.7524 11.1811 23.3891 10.8457C23.3212 10.7797 23.248 10.7147 23.1736 10.6498C22.7081 10.242 22.1993 9.88686 21.6564 9.59105L21.6176 9.57156C19.9118 8.63846 17.692 8.15786 14.9549 8.69906C14.5873 8.25076 14.1914 7.82666 13.7696 7.42936C13.1236 6.81096 12.3632 6.32596 11.5315 6.00156C10.7072 5.69846 9.8244 5.59026 8.9517 5.68546C9.7929 5.76156 10.6123 5.99656 11.3666 6.37826C12.0951 6.77036 12.7512 7.28516 13.3062 7.90026C13.8688 8.52816 14.3976 9.18576 14.8903 9.87036L15.0139 10.0321C15.496 10.6628 15.9868 11.3049 16.5982 11.8763C16.9348 12.1944 17.3103 12.4683 17.7157 12.6914C17.8234 12.7466 17.9323 12.7985 18.039 12.844C18.1456 12.8895 18.2458 12.9317 18.3536 12.9707C18.5616 13.0518 18.7771 13.119 18.9926 13.1807C19.8547 13.4275 20.7372 13.5162 21.5993 13.5639C21.7192 13.5702 21.8389 13.5761 21.9581 13.582C22.266 13.5973 22.5713 13.6124 22.8719 13.6342C23.2837 13.6588 23.6922 13.7233 24.0917 13.8269C24.6918 13.9841 25.2201 14.3432 25.5885 14.8444C25.7137 15.0114 25.8261 15.1876 25.9247 15.3716ZM23.4013 10.847C23.358 10.8068 23.3139 10.767 23.27 10.7273C23.2418 10.7018 23.2136 10.6764 23.1858 10.651C23.2073 10.6707 23.2288 10.6906 23.2503 10.7106C23.3009 10.7575 23.3514 10.8044 23.4013 10.847ZM22.3238 18.8191C19.5516 17.6891 16.6518 16.507 17.0835 13.1894C18.0091 14.1821 19.462 14.3903 21.0422 14.6168C22.4757 14.8222 24.0139 15.0426 25.3583 15.8772C28.5306 17.8452 28.0673 21.6685 26.9897 23.0758C27.0869 20.7606 24.7544 19.8099 22.3238 18.8191ZM11.1551 17.1586C11.8868 17.0882 13.4461 16.7061 12.7489 15.4731C12.5989 15.2223 12.3815 15.0191 12.1217 14.8867C11.8619 14.7544 11.5702 14.6984 11.2801 14.7251C10.9858 14.7569 10.7082 14.8788 10.4852 15.0744C10.2622 15.27 10.1044 15.5297 10.0334 15.8184C9.8168 16.6249 10.0463 17.2668 11.1551 17.1586ZM10.9448 7.40326C10.4858 6.87066 9.7735 6.59136 9.0752 6.48966C9.0491 6.66436 9.0326 6.84036 9.0257 7.01686C8.9944 8.47056 9.5084 10.0673 10.503 11.1769C10.8212 11.5356 11.2049 11.8295 11.6334 12.0429C11.8812 12.1641 12.5386 12.465 12.7821 12.1944C12.8006 12.1696 12.8123 12.1403 12.8159 12.1095C12.8195 12.0787 12.8149 12.0475 12.8026 12.0191C12.7622 11.9032 12.6843 11.798 12.6069 11.6936C12.552 11.6196 12.4974 11.546 12.4567 11.4691C12.4155 11.3917 12.3714 11.3161 12.3274 11.2407C12.2447 11.0989 12.1622 10.9574 12.0989 10.8034C11.9319 10.4003 11.845 9.97166 11.7583 9.54436C11.741 9.45896 11.7236 9.37306 11.7056 9.28786C11.5731 8.62865 11.4039 7.93586 10.9448 7.40326ZM20.7524 18.9999C20.0403 20.9962 21.1888 22.6823 22.3306 24.3585C23.6077 26.2334 24.8764 28.0959 23.5228 30.3661C26.1532 29.275 27.4021 25.9788 26.3105 23.3635C25.6227 21.7093 23.9649 20.8125 22.4261 19.9802C21.8291 19.6573 21.2499 19.344 20.7524 18.9999ZM13.0552 23.7652C12.5785 23.9606 12.129 24.2171 11.7179 24.5284C12.6527 24.1878 13.6339 23.9933 14.6274 23.9514C14.8074 23.9407 14.9887 23.9323 15.1715 23.9238C15.4873 23.9092 15.8085 23.8944 16.136 23.867C16.6729 23.8304 17.2025 23.7211 17.7103 23.5422C18.2425 23.3552 18.7268 23.052 19.1284 22.6546C19.5342 22.2443 19.8188 21.7291 19.9506 21.1661C20.0666 20.6343 20.0503 20.082 19.9032 19.5581C19.756 19.0341 19.4825 18.5547 19.1069 18.1622C19.2881 18.624 19.3996 19.1103 19.4377 19.6052C19.4705 20.0659 19.4081 20.5284 19.2545 20.9637C19.1045 21.3763 18.8593 21.7473 18.539 22.0462C18.2081 22.3481 17.825 22.5865 17.4086 22.7498C16.8299 22.984 16.1755 23.0798 15.4939 23.1796C15.183 23.2251 14.8664 23.2715 14.5487 23.3322C14.0378 23.4262 13.5374 23.5713 13.0552 23.7652ZM21.3187 32.0065L21.273 32.0434C21.1525 32.1407 21.0301 32.2398 20.8982 32.3287C20.7301 32.4399 20.554 32.5384 20.3713 32.6231C19.9908 32.8096 19.5726 32.9048 19.1493 32.9013C18.0028 32.8797 17.1924 32.0224 16.7183 31.0535C16.594 30.7996 16.4845 30.5378 16.375 30.276C16.1997 29.857 16.0244 29.438 15.7883 29.0509C15.2399 28.1514 14.3013 27.4272 13.2022 27.5614C12.7539 27.6177 12.3336 27.8201 12.0847 28.2109C11.4295 29.2317 12.3703 30.6617 13.5696 30.4592C13.6716 30.4436 13.7714 30.416 13.867 30.377C13.9623 30.3362 14.0512 30.2819 14.131 30.2157C14.2986 30.0755 14.4248 29.8922 14.4963 29.6853C14.5751 29.4695 14.5926 29.236 14.547 29.0109C14.4978 28.7755 14.3594 28.5687 14.1612 28.4339C14.3917 28.5423 14.5713 28.7364 14.6623 28.9751C14.7566 29.2209 14.7809 29.4881 14.7323 29.747C14.6852 30.0166 14.5669 30.2686 14.3896 30.4766C14.2955 30.5835 14.1866 30.6765 14.0664 30.7526C13.9472 30.8278 13.8195 30.8885 13.686 30.9334C13.4153 31.0263 13.1272 31.0563 12.8433 31.0211C12.4447 30.964 12.0688 30.8002 11.755 30.5469C11.697 30.5009 11.6414 30.4527 11.5875 30.4027C11.374 30.2177 11.1802 30.0106 11.0093 29.7848C10.9326 29.7 10.8547 29.6163 10.7733 29.5359C10.3891 29.1309 9.9358 28.7984 9.4349 28.5541C9.0895 28.4017 8.728 28.2891 8.3574 28.2185C8.1709 28.1795 7.9824 28.1514 7.7938 28.1276C7.7733 28.1255 7.734 28.1186 7.685 28.1101C7.5276 28.0826 7.2711 28.0379 7.2259 28.0799C7.8088 27.5409 8.4441 27.0622 9.1224 26.651C9.8189 26.2359 10.5667 25.9145 11.3466 25.6952C12.1551 25.4666 13.0009 25.4014 13.8347 25.5036C14.2639 25.5554 14.6843 25.6646 15.0847 25.8283C15.5042 25.9967 15.8914 26.237 16.2291 26.5385C16.5632 26.8547 16.8333 27.233 17.0243 27.6523C17.1968 28.045 17.3254 28.4556 17.4079 28.8766C17.4521 29.1032 17.4855 29.3521 17.5199 29.6098C17.677 30.7841 17.8585 32.1391 19.2043 32.3752C19.2898 32.3919 19.3761 32.4042 19.4629 32.4121L19.7312 32.4185C19.9157 32.4053 20.099 32.3789 20.2797 32.3395C20.6541 32.2511 21.019 32.126 21.3691 31.9661L21.3187 32.0065ZM11.0801 29.8638C11.1123 29.9008 11.1449 29.9374 11.1779 29.9737C11.1644 29.9586 11.151 29.9434 11.1375 29.9283C11.1184 29.9068 11.0993 29.8853 11.0801 29.8638Z" fill="#FC72FF"/>
</svg>
